<svg width="293" height="293" viewBox="0 0 293 293" fill="none" xmlns="http://www.w3.org/2000/svg">
<circle cx="143.5" cy="149.5" r="143.5" fill="white"/>
<g clip-path="url(#clip0_4_53)">
<ellipse cx="146.719" cy="144.311" rx="141.906" ry="144.311" fill="white"/>
<path d="M146.499 271.514C215.546 271.514 271.52 215.54 271.52 146.492C271.52 77.4444 215.546 21.4703 146.499 21.4703C77.4512 21.4703 21.4771 77.4444 21.4771 146.492C21.4771 215.54 77.4512 271.514 146.499 271.514Z" fill="#1ABB40"/>
<path d="M180.269 3.43359L12.6035 171.123L146.5 191.062L104.746 149.332L180.269 3.43359Z" fill="white"/>
<path d="M112.729 289.561L280.395 121.871L146.498 101.932L188.252 143.662L112.729 289.561Z" fill="white"/>
<path d="M146.5 0C65.5895 0 0 65.5895 0 146.5C0 227.411 65.5895 293 146.5 293C227.411 293 293 227.411 293 146.5C293 65.5895 227.411 0 146.5 0ZM146.5 281.936C71.6986 281.936 11.0639 221.301 11.0639 146.5C11.0639 71.6986 71.6986 11.0639 146.5 11.0639C221.301 11.0639 281.936 71.6986 281.936 146.5C281.936 221.301 221.301 281.936 146.5 281.936Z" fill="#1ABB40"/>
</g>
<defs>
<clipPath id="clip0_4_53">
<rect width="293" height="293" fill="white"/>
</clipPath>
</defs>
</svg>
